<svg width="512" height="512" viewBox="0 0 80 80" fill="none" xmlns="http://www.w3.org/2000/svg">
  <!-- Background box -->
  <rect width="80" height="80" rx="16" fill="#1c1917"/>

  <!-- Bird group - centered and scaled -->
  <g transform="translate(8, 10) scale(1)">
    <!-- Bird body - streamlined shape -->
    <path
      d="M12 38C10 35 10 30 14 26C18 22 24 22 28 24L32 20C34 18 38 16 42 18C46 20 48 24 46 28C44 32 40 34 36 33L32 36C30 38 26 42 22 44C18 46 14 42 12 38Z"
      fill="#fafaf9"
    />

    <!-- Wing detail -->
    <path
      d="M18 32C20 30 24 28 28 28"
      stroke="#1c1917"
      stroke-width="1.5"
      stroke-linecap="round"
      opacity="0.3"
    />

    <!-- Bird head - clear round shape -->
    <circle cx="44" cy="20" r="8" fill="#fafaf9"/>

    <!-- Eye - prominent -->
    <circle cx="46" cy="18" r="2" fill="#1c1917"/>

    <!-- Beak - clear triangular shape -->
    <path d="M50 22L58 20L50 24Z" fill="#fafaf9"/>

    <!-- Twig/stick in beak - clear Y-shape -->
    <g stroke="#fafaf9" stroke-width="2.5" stroke-linecap="round" stroke-linejoin="round">
      <path d="M56 21L60 25L58 32"/>
      <path d="M59 27L62 26"/>
      <path d="M58 30L61 32"/>
    </g>

    <!-- Tail feathers - elegant spread -->
    <path
      d="M8 36C6 38 4 42 6 44C8 42 10 40 12 38M10 34C8 36 5 38 6 40"
      stroke="#fafaf9"
      stroke-width="2.5"
      stroke-linecap="round"
    />
  </g>
</svg>
